<svg version="1.0" xmlns="http://www.w3.org/2000/svg"
 width="300" height="300" viewBox="0 0 300 300"
 preserveAspectRatio="xMidYMid meet">
<g transform="translate(0,300) scale(0.1,-0.1)"
fill="#000000" stroke="none">
<path d="M1945 2801 c-81 -36 -183 -184 -216 -310 -15 -58 -8 -57 -134 -36
-117 19 -257 20 -294 1 l-27 -15 -50 76 c-27 41 -77 101 -110 133 -174 162
-286 128 -301 -94 -9 -145 35 -287 130 -411 25 -33 43 -63 41 -66 -2 -4 -27
-9 -56 -13 -117 -15 -198 -63 -198 -117 0 -51 50 -103 140 -149 25 -12 47 -24
49 -26 10 -9 -36 -112 -64 -143 -54 -61 -69 -99 -70 -176 0 -57 5 -81 28 -127
33 -68 122 -153 195 -188 29 -14 52 -29 52 -35 0 -5 -12 -18 -26 -28 -29 -21
-8 -32 -217 112 -55 38 -99 61 -115 61 -33 0 -206 -111 -229 -146 -13 -20 -15
-42 -10 -110 6 -101 5 -99 137 -197 52 -38 122 -90 155 -115 33 -25 61 -47 63
-48 2 -1 5 -42 6 -91 4 -116 33 -189 101 -260 45 -47 56 -53 91 -53 23 0 49 8
64 20 14 11 34 20 45 20 11 0 31 7 44 14 19 11 33 10 80 -1 71 -18 307 -22
337 -5 17 9 25 8 40 -3 11 -8 29 -15 41 -15 12 0 43 -14 68 -32 30 -21 63 -34
98 -39 28 -4 70 -14 92 -23 51 -20 215 -21 269 -1 23 8 58 12 85 9 39 -5 53
-1 93 25 155 100 166 299 30 529 -22 38 -61 91 -86 119 -66 73 -61 96 29 147
72 41 95 65 95 99 0 36 -66 107 -99 107 -31 0 -81 24 -120 59 l-34 30 16 52
c23 70 21 107 -8 164 -13 27 -23 51 -21 53 2 2 34 7 71 13 69 9 96 20 129 48
73 63 16 147 -150 222 -60 28 -64 31 -58 57 3 15 15 46 25 68 26 56 49 181 39
209 -5 12 -21 32 -36 44 l-27 21 -2 163 c-1 139 -4 172 -24 232 -30 92 -65
151 -101 170 -37 19 -46 19 -95 -4z m123 -91 c50 -100 65 -194 63 -382 l-1
-67 -52 29 c-29 17 -60 34 -68 39 -10 5 -16 27 -17 62 -4 70 -28 151 -52 173
-42 38 -97 -12 -123 -109 -12 -45 -18 -50 -49 -37 -15 6 -15 12 -3 60 40 154
161 306 239 300 26 -3 34 -12 63 -68z m-1063 -25 c58 -34 142 -119 190 -195
56 -87 58 -94 38 -153 l-16 -51 -13 36 c-44 128 -144 235 -194 208 -27 -14
-43 -81 -34 -146 10 -80 55 -167 123 -234 32 -33 56 -62 53 -65 -3 -3 -27 -5
-53 -5 -45 0 -50 3 -99 58 -101 113 -156 267 -147 412 11 167 45 198 152 135z
m932 -190 c7 -21 16 -62 19 -91 l7 -53 -59 21 c-33 12 -61 23 -63 24 -6 5 29
99 45 122 21 30 35 24 51 -23z m-844 -47 c39 -48 57 -82 85 -156 18 -48 19
-55 5 -102 -8 -27 -18 -50 -23 -50 -15 0 -90 94 -115 146 -27 54 -42 136 -31
178 10 39 39 32 79 -16z m586 -48 c170 -42 335 -110 467 -195 63 -40 63 -40
31 -167 -16 -65 -25 -85 -35 -80 -10 7 -10 20 2 68 30 125 30 129 -6 153 -39
24 -37 27 -63 -91 -17 -79 -20 -84 -43 -70 -9 6 -7 29 12 103 14 56 20 98 14
104 -13 15 -21 -3 -42 -99 -10 -47 -22 -86 -25 -86 -3 0 -12 4 -20 9 -12 8
-11 22 8 95 25 101 26 116 6 116 -8 0 -15 -9 -15 -20 0 -18 -24 -130 -36 -169
-3 -9 -8 -11 -14 -5 -5 5 0 49 15 109 13 55 22 101 20 103 -2 2 -53 21 -113
42 -151 54 -304 82 -422 78 l-94 -3 -40 -112 c-24 -70 -44 -113 -52 -113 -19
0 -18 5 22 122 55 157 33 142 198 135 90 -4 171 -13 225 -27z m21 -78 c139
-36 210 -66 210 -87 0 -9 -7 -45 -16 -81 -15 -58 -19 -65 -38 -61 -12 3 -64
16 -116 31 -116 31 -249 54 -350 60 -41 2 -79 5 -83 5 -12 1 2 57 29 120 l24
54 113 -6 c75 -4 149 -15 227 -35z m-156 -197 c189 -30 417 -104 542 -175 39
-23 51 -35 47 -49 -4 -17 -14 -15 -136 24 -236 76 -587 144 -744 145 -66 0
-70 4 -52 44 9 20 20 26 53 28 74 5 196 -2 290 -17z m-149 -106 c427 -50 975
-239 975 -337 0 -41 -48 -64 -158 -77 -52 -6 -62 -5 -62 8 0 11 15 17 58 22
156 18 164 54 27 123 -145 72 -397 150 -633 196 -149 29 -162 31 -349 47 -218
18 -436 -9 -450 -58 -6 -16 30 -47 98 -83 32 -17 59 -35 59 -41 0 -15 -17 -11
-73 17 -70 35 -113 69 -120 93 -8 31 28 69 76 82 99 28 350 31 552 8z m-374
-109 l-46 -47 -45 25 c-59 33 -66 40 -54 52 11 11 138 27 170 22 19 -3 16 -9
-25 -52z m619 -6 c112 -23 285 -70 345 -94 17 -6 32 -12 35 -12 49 -6 240 -91
240 -107 0 -5 -17 -11 -37 -15 -67 -11 -80 -8 -87 19 -3 13 -18 35 -32 49 -42
38 -299 115 -564 167 -98 20 -124 27 -80 23 36 -3 117 -16 180 -30z m-223 -19
c208 -31 497 -102 630 -154 52 -20 55 -28 65 -142 3 -30 12 -53 31 -73 33 -36
42 -82 27 -143 -14 -60 -26 -75 -72 -91 -32 -11 -42 -11 -67 3 -48 24 -114 20
-150 -11 -39 -32 -39 -51 0 -100 l30 -38 -53 -19 c-100 -34 -196 -45 -363 -43
-123 2 -180 8 -246 24 -269 66 -407 173 -426 330 -8 71 11 125 62 177 25 25
45 51 45 59 0 25 39 105 86 178 l46 71 126 -6 c70 -3 173 -13 229 -22z m608
-642 c30 -14 41 -15 68 -5 59 21 87 15 127 -27 30 -32 46 -40 88 -46 40 -5 57
-14 77 -37 14 -16 25 -35 25 -43 0 -22 -144 -87 -185 -83 l-37 3 29 40 c60 83
67 95 50 95 -8 0 -36 -29 -62 -65 -25 -36 -50 -65 -54 -65 -5 0 -23 3 -40 6
-30 6 -31 9 -32 58 -1 69 -20 130 -43 134 -15 3 -16 1 -6 -18 6 -11 14 -52 17
-90 l6 -70 -32 11 c-26 9 -38 23 -57 67 -14 31 -36 71 -51 90 -25 34 -25 35
-8 48 26 19 77 17 120 -3z m-972 -261 c98 -68 175 -128 170 -132 -4 -4 -55
-40 -111 -80 l-104 -72 -46 33 c-26 19 -133 97 -238 174 -104 77 -201 148
-215 157 l-24 17 25 18 c14 10 63 43 110 73 l85 56 85 -60 c47 -32 165 -115
263 -184z m98 33 c-2 -33 -4 -61 -6 -63 -2 -2 -28 13 -59 34 -47 31 -54 39
-44 52 17 20 68 42 93 39 18 -2 20 -8 16 -62z m175 10 c18 -12 29 -13 43 -5
27 14 74 13 96 -4 15 -11 24 -11 49 -1 27 11 91 19 134 16 29 -2 -17 -169 -56
-205 -15 -13 -23 -11 -72 23 -30 21 -61 36 -69 33 -11 -4 -13 5 -9 44 3 27 7
56 9 64 3 11 -6 16 -34 18 -33 3 -38 0 -48 -25 -6 -15 -8 -45 -4 -67 5 -33 3
-37 -11 -32 -9 3 -28 -3 -44 -14 l-29 -20 -23 23 c-13 12 -34 30 -47 39 -21
15 -24 25 -23 68 2 87 4 90 63 75 28 -8 61 -21 75 -30z m597 26 c6 -6 4 -26
-7 -56 -8 -26 -14 -51 -11 -55 2 -3 -15 -23 -39 -43 l-44 -36 -22 24 c-30 32
-35 26 -17 -17 14 -34 14 -35 -31 -94 -25 -32 -61 -93 -80 -134 -30 -63 -36
-89 -40 -162 -4 -77 -2 -92 21 -142 14 -31 22 -56 18 -56 -25 0 -71 88 -72
137 l0 28 -10 -25 c-6 -14 -8 -43 -4 -66 l6 -41 -83 -6 c-86 -6 -208 4 -277
23 -44 12 -101 70 -101 105 0 11 -11 51 -24 90 -18 51 -21 72 -13 77 7 4 51
35 100 70 81 59 87 65 85 95 -2 29 3 36 44 62 61 39 95 36 177 -17 35 -23 72
-42 82 -42 38 0 99 113 114 213 6 40 11 48 34 53 14 3 46 12 71 19 47 14 107
12 123 -4z m-1419 1 c3 -5 116 -89 250 -187 135 -98 244 -181 241 -183 -2 -2
-18 4 -35 14 -56 35 -479 349 -479 357 -1 10 17 9 23 -1z m220 -201 c114 -84
205 -156 202 -158 -6 -7 -11 -4 -234 161 -111 82 -202 153 -202 158 0 13 3 11
234 -161z m1351 139 c39 -10 94 -21 123 -25 85 -11 64 -29 -25 -21 -87 8 -205
44 -211 65 -4 11 1 12 19 7 13 -4 56 -16 94 -26z m-1531 -43 c23 -18 109 -82
191 -142 83 -60 152 -110 154 -112 2 -2 2 -6 -2 -9 -3 -4 -88 53 -187 126
-100 73 -183 130 -186 127 -5 -5 71 -63 268 -206 48 -35 85 -67 82 -72 -3 -5
-16 -2 -29 8 -13 10 -94 70 -180 133 -118 87 -155 119 -152 132 3 10 1 21 -4
24 -10 6 -12 24 -3 24 4 0 25 -15 48 -33z m1621 -34 c53 -4 75 -10 75 -19 0
-17 -35 -18 -116 -3 -72 12 -184 48 -184 58 0 17 13 16 79 -6 39 -13 104 -26
146 -30z m-205 -20 c0 -3 -11 -21 -26 -40 -31 -41 -16 -43 30 -2 26 22 41 29
56 24 19 -6 21 -12 15 -46 -9 -50 9 -52 25 -3 12 34 14 35 47 29 20 -3 47 -20
65 -38 29 -31 31 -27 11 21 -4 8 8 12 41 12 45 0 47 -2 92 -62 25 -34 63 -98
84 -143 104 -219 70 -368 -103 -443 -44 -19 -44 -15 -2 28 21 22 36 42 33 46
-3 3 -30 -10 -60 -30 -70 -46 -129 -59 -236 -54 -99 5 -149 25 -203 83 -18 19
-37 35 -41 35 -18 0 -6 -22 33 -61 34 -34 37 -40 17 -34 -45 14 -75 34 -110
73 -48 53 -61 98 -56 192 5 85 41 177 100 253 54 72 152 167 170 167 10 0 18
-3 18 -7z m-715 -62 c-34 -31 -227 -162 -232 -157 -8 7 -19 -2 111 89 60 43
114 77 120 77 6 0 6 -3 1 -9z m-6 -45 c-2 -1 -44 -30 -93 -65 -87 -61 -134
-88 -110 -62 26 28 199 147 203 139 1 -5 1 -10 0 -12z m1 -26 c0 -10 -164
-133 -174 -131 -16 3 0 17 81 76 99 72 93 68 93 55z m-272 -104 c69 -36 111
-122 119 -242 7 -104 -10 -144 -61 -144 -48 0 -89 38 -128 118 -28 58 -32 78
-32 150 -1 80 0 85 27 108 33 28 39 29 75 10z m201 -330 c-7 -6 -47 -26 -52
-26 -2 0 0 18 6 39 l11 39 19 -24 c11 -14 18 -26 16 -28z"/>
<path d="M1009 1621 c-67 -67 -12 -179 77 -157 30 8 57 64 48 101 -5 20 -11
24 -30 19 -31 -8 -46 23 -20 41 15 12 15 13 0 19 -29 11 -45 6 -75 -23z m61
-66 c17 -18 21 -28 13 -36 -25 -25 -73 11 -60 45 9 22 20 20 47 -9z"/>
<path d="M1693 1580 c-84 -51 -46 -190 52 -190 75 0 126 96 87 164 -3 5 -9 0
-13 -12 -10 -27 -45 -29 -59 -2 -8 15 -6 23 12 40 l22 20 -35 0 c-19 0 -48 -9
-66 -20z m37 -59 c0 -6 14 -18 30 -28 34 -20 36 -42 4 -54 -44 -16 -87 31 -70
77 6 16 36 20 36 5z"/>
<path d="M1308 1523 c-28 -7 -29 -33 -4 -58 21 -21 23 -29 15 -59 -11 -39 -32
-52 -50 -30 -9 11 -15 12 -26 3 -11 -10 -11 -15 3 -30 21 -23 52 -24 76 -2 17
15 19 15 31 1 20 -26 52 -30 77 -10 31 25 19 46 -16 30 -22 -10 -28 -9 -40 7
-23 31 -18 70 11 83 63 29 -3 85 -77 65z"/>
<path d="M603 1138 l-93 -62 71 -50 c39 -28 150 -109 246 -179 101 -74 180
-126 188 -123 20 7 173 115 180 126 5 9 -476 350 -492 349 -4 0 -50 -28 -100
-61z m251 -63 c211 -143 256 -179 256 -202 0 -12 5 -25 10 -28 17 -10 11 -20
-22 -40 -20 -12 -53 -20 -83 -21 -43 0 -59 6 -112 40 -34 23 -63 43 -63 46 0
3 14 6 31 7 67 5 103 56 77 109 -33 67 -157 85 -205 30 -13 -15 -23 -33 -23
-41 0 -9 -21 1 -59 27 -44 30 -61 48 -65 71 -4 20 -2 34 6 38 7 4 21 14 32 22
12 9 36 12 74 9 48 -4 68 -13 146 -67z m57 -71 c27 -24 24 -70 -4 -89 -39 -25
-103 -22 -133 6 -38 35 -30 80 16 96 43 16 96 10 121 -13z"/>
<path d="M666 1104 c-19 -19 -20 -26 -4 -42 19 -19 66 -15 77 7 8 14 6 22 -8
35 -22 20 -45 20 -65 0z m54 -19 c0 -8 -9 -15 -20 -15 -11 0 -20 7 -20 15 0 8
9 15 20 15 11 0 20 -7 20 -15z"/>
<path d="M961 886 c-26 -32 15 -71 57 -55 18 7 23 15 20 36 -2 23 -9 29 -34
31 -19 2 -36 -3 -43 -12z m59 -21 c0 -16 -35 -21 -44 -6 -8 12 4 21 26 21 10
0 18 -7 18 -15z"/>
<path d="M835 995 c-3 -8 -7 -21 -9 -29 -3 -8 0 -17 7 -20 8 -3 8 -5 -1 -5 -8
-1 -16 8 -19 19 -8 29 -26 20 -27 -13 -2 -25 1 -27 36 -27 37 0 43 6 39 38 -2
10 4 12 18 7 17 -5 21 -2 21 17 0 19 -6 24 -30 26 -20 2 -32 -3 -35 -13z"/>
<path d="M1260 1005 c-15 -18 -8 -88 10 -110 11 -13 16 -13 41 2 18 11 29 26
29 39 0 12 2 28 5 36 3 8 -7 21 -24 31 -36 21 -45 21 -61 2z"/>
<path d="M1498 988 c-17 -6 -28 -17 -28 -28 0 -10 -2 -24 -5 -32 -6 -16 61
-62 76 -52 19 11 40 73 33 99 -7 27 -28 31 -76 13z"/>
<path d="M2077 743 c-4 -3 -7 -15 -7 -25 0 -13 -7 -18 -25 -18 -14 0 -39 -13
-57 -29 -58 -52 -32 -136 53 -171 26 -11 29 -17 29 -61 l0 -49 -24 15 c-31 21
-80 16 -84 -7 -4 -20 51 -58 85 -58 14 0 23 -7 25 -20 4 -29 22 -30 26 -2 3
16 10 22 29 22 37 0 93 60 93 99 0 49 -19 77 -71 106 -47 25 -49 28 -49 70 l0
44 30 -11 c35 -12 60 -5 60 16 0 18 -30 36 -60 36 -13 0 -24 9 -30 25 -10 27
-13 29 -23 18z m-7 -130 c-1 -36 -2 -37 -15 -19 -16 21 -19 39 -8 49 15 16 23
5 23 -30z m-3 -63 c5 0 18 -9 28 -20 10 -11 15 -20 11 -20 -15 0 -96 61 -96
72 0 6 10 2 23 -10 13 -12 28 -22 34 -22z m61 -96 c12 -21 4 -51 -14 -58 -11
-4 -14 4 -14 34 0 42 12 52 28 24z"/>
</g>
</svg>
